<?xml version="1.0" encoding="UTF-8"?>
<svg xmlns="http://www.w3.org/2000/svg" xmlns:xlink="http://www.w3.org/1999/xlink" width="30pt" height="30.000001pt" viewBox="0 0 30 30.000001" version="1.2">
<defs>
<clipPath id="clip1">
  <path d="M 6.019531 10.167969 L 24 10.167969 L 24 18.878906 L 6.019531 18.878906 Z M 6.019531 10.167969 "/>
</clipPath>
</defs>
<g id="surface1">
<path style=" stroke:none;fill-rule:nonzero;fill:rgb(13.328552%,13.328552%,13.328552%);fill-opacity:1;" d="M 14.988281 27.921875 C 11.40625 27.921875 8.035156 26.527344 5.503906 23.992188 C 2.96875 21.460938 1.574219 18.085938 1.574219 14.503906 C 1.574219 10.921875 2.96875 7.550781 5.503906 5.019531 C 8.035156 2.484375 11.40625 1.089844 14.988281 1.089844 C 18.570312 1.089844 21.945312 2.484375 24.476562 5.019531 C 27.011719 7.554688 28.40625 10.921875 28.40625 14.503906 C 28.40625 18.085938 27.011719 21.460938 24.476562 23.992188 C 21.945312 26.527344 18.570312 27.921875 14.988281 27.921875 Z M 14.988281 1.894531 C 11.621094 1.894531 8.453125 3.207031 6.070312 5.585938 C 3.691406 7.96875 2.375 11.136719 2.375 14.503906 C 2.375 17.871094 3.691406 21.042969 6.070312 23.421875 C 8.453125 25.804688 11.621094 27.117188 14.988281 27.117188 C 18.355469 27.117188 21.527344 25.804688 23.90625 23.421875 C 26.289062 21.042969 27.601562 17.871094 27.601562 14.503906 C 27.601562 11.136719 26.289062 7.96875 23.90625 5.585938 C 21.527344 3.207031 18.355469 1.894531 14.988281 1.894531 Z M 14.988281 1.894531 "/>
<g clip-path="url(#clip1)" clip-rule="nonzero">
<path style=" stroke:none;fill-rule:nonzero;fill:rgb(0%,0%,0%);fill-opacity:1;" d="M 23.105469 10.914062 L 7 10.914062 C 6.789062 10.914062 6.617188 10.734375 6.617188 10.515625 C 6.617188 10.292969 6.789062 10.113281 7 10.113281 L 23.105469 10.113281 C 23.316406 10.113281 23.488281 10.292969 23.488281 10.515625 C 23.488281 10.734375 23.316406 10.914062 23.105469 10.914062 Z M 23.105469 14.917969 L 7 14.917969 C 6.789062 14.917969 6.617188 14.738281 6.617188 14.515625 C 6.617188 14.296875 6.789062 14.117188 7 14.117188 L 23.105469 14.117188 C 23.316406 14.117188 23.488281 14.296875 23.488281 14.515625 C 23.488281 14.738281 23.316406 14.917969 23.105469 14.917969 Z M 23.105469 18.921875 L 7 18.921875 C 6.789062 18.921875 6.617188 18.742188 6.617188 18.519531 C 6.617188 18.300781 6.789062 18.121094 7 18.121094 L 23.105469 18.121094 C 23.316406 18.121094 23.488281 18.300781 23.488281 18.519531 C 23.488281 18.742188 23.316406 18.921875 23.105469 18.921875 Z M 23.105469 18.921875 "/>
</g>
</g>
</svg>
