<?xml version="1.0" encoding="UTF-8"?>
<svg xmlns="http://www.w3.org/2000/svg" xmlns:xlink="http://www.w3.org/1999/xlink" width="30pt" height="30.000001pt" viewBox="0 0 30 30.000001" version="1.2">
<defs>
<clipPath id="clip1">
  <path d="M 8.648438 8.164062 L 21.714844 8.164062 L 21.714844 21.230469 L 8.648438 21.230469 Z M 8.648438 8.164062 "/>
</clipPath>
</defs>
<g id="surface1">
<path style=" stroke:none;fill-rule:nonzero;fill:rgb(13.328552%,13.328552%,13.328552%);fill-opacity:1;" d="M 14.988281 27.921875 C 11.40625 27.921875 8.035156 26.527344 5.503906 23.992188 C 2.96875 21.460938 1.574219 18.085938 1.574219 14.503906 C 1.574219 10.921875 2.96875 7.550781 5.503906 5.019531 C 8.035156 2.484375 11.40625 1.089844 14.988281 1.089844 C 18.570312 1.089844 21.945312 2.484375 24.476562 5.019531 C 27.011719 7.554688 28.40625 10.921875 28.40625 14.503906 C 28.40625 18.085938 27.011719 21.460938 24.476562 23.992188 C 21.945312 26.527344 18.570312 27.921875 14.988281 27.921875 Z M 14.988281 1.894531 C 11.621094 1.894531 8.453125 3.207031 6.070312 5.585938 C 3.691406 7.96875 2.375 11.136719 2.375 14.503906 C 2.375 17.871094 3.691406 21.042969 6.070312 23.421875 C 8.453125 25.804688 11.621094 27.117188 14.988281 27.117188 C 18.355469 27.117188 21.527344 25.804688 23.90625 23.421875 C 26.289062 21.042969 27.601562 17.871094 27.601562 14.503906 C 27.601562 11.136719 26.289062 7.96875 23.90625 5.585938 C 21.527344 3.207031 18.355469 1.894531 14.988281 1.894531 Z M 14.988281 1.894531 "/>
<g clip-path="url(#clip1)" clip-rule="nonzero">
<path style=" stroke:none;fill-rule:nonzero;fill:rgb(12.548828%,8.628845%,0%);fill-opacity:1;" d="M 8.933594 21.589844 C 8.867188 21.589844 8.800781 21.566406 8.75 21.515625 C 8.648438 21.414062 8.648438 21.25 8.75 21.152344 L 21.621094 8.28125 C 21.722656 8.179688 21.886719 8.179688 21.984375 8.28125 C 22.085938 8.378906 22.085938 8.542969 21.984375 8.644531 L 9.113281 21.515625 C 9.0625 21.566406 9 21.589844 8.933594 21.589844 "/>
<path style=" stroke:none;fill-rule:nonzero;fill:rgb(12.548828%,8.628845%,0%);fill-opacity:1;" d="M 21.804688 21.589844 C 21.738281 21.589844 21.671875 21.566406 21.621094 21.515625 L 8.75 8.644531 C 8.648438 8.542969 8.648438 8.378906 8.75 8.28125 C 8.851562 8.179688 9.015625 8.179688 9.113281 8.28125 L 21.984375 21.152344 C 22.085938 21.25 22.085938 21.414062 21.984375 21.515625 C 21.933594 21.566406 21.871094 21.589844 21.804688 21.589844 "/>
</g>
</g>
</svg>
