<?xml version="1.0" encoding="UTF-8"?>
<svg xmlns="http://www.w3.org/2000/svg" xmlns:xlink="http://www.w3.org/1999/xlink" width="30pt" height="30.000001pt" viewBox="0 0 30 30.000001" version="1.2">
<defs>
<clipPath id="clip1">
  <path d="M 6.019531 10.167969 L 24 10.167969 L 24 18.878906 L 6.019531 18.878906 Z M 6.019531 10.167969 "/>
</clipPath>
</defs>
<g id="surface1">
<path style=" stroke:none;fill-rule:nonzero;fill:rgb(100%,100%,100%);fill-opacity:1;" d="M 14.988281 27.921875 C 11.40625 27.921875 8.035156 26.527344 5.503906 23.992188 C 2.96875 21.460938 1.574219 18.085938 1.574219 14.503906 C 1.574219 10.921875 2.96875 7.550781 5.503906 5.019531 C 8.035156 2.484375 11.40625 1.089844 14.988281 1.089844 C 18.570312 1.089844 21.945312 2.484375 24.476562 5.019531 C 27.011719 7.554688 28.40625 10.921875 28.40625 14.503906 C 28.40625 18.085938 27.011719 21.460938 24.476562 23.992188 C 21.945312 26.527344 18.570312 27.921875 14.988281 27.921875 Z M 14.988281 1.894531 C 11.621094 1.894531 8.453125 3.207031 6.070312 5.585938 C 3.691406 7.96875 2.375 11.136719 2.375 14.503906 C 2.375 17.871094 3.691406 21.042969 6.070312 23.421875 C 8.453125 25.804688 11.621094 27.117188 14.988281 27.117188 C 18.355469 27.117188 21.527344 25.804688 23.90625 23.421875 C 26.289062 21.042969 27.601562 17.871094 27.601562 14.503906 C 27.601562 11.136719 26.289062 7.96875 23.90625 5.585938 C 21.527344 3.207031 18.355469 1.894531 14.988281 1.894531 Z M 14.988281 1.894531 "/>
<g clip-path="url(#clip1)" clip-rule="nonzero">
<path style=" stroke:none;fill-rule:nonzero;fill:rgb(100%,100%,100%);fill-opacity:1;" d="M 23.179688 10.902344 L 7.003906 10.902344 C 6.792969 10.902344 6.617188 10.726562 6.617188 10.507812 C 6.617188 10.292969 6.792969 10.113281 7.003906 10.113281 L 23.179688 10.113281 C 23.394531 10.113281 23.566406 10.292969 23.566406 10.507812 C 23.566406 10.726562 23.394531 10.902344 23.179688 10.902344 Z M 23.179688 14.835938 L 7.003906 14.835938 C 6.792969 14.835938 6.617188 14.660156 6.617188 14.445312 C 6.617188 14.226562 6.792969 14.050781 7.003906 14.050781 L 23.179688 14.050781 C 23.394531 14.050781 23.566406 14.226562 23.566406 14.445312 C 23.566406 14.660156 23.394531 14.835938 23.179688 14.835938 Z M 23.179688 18.773438 L 7.003906 18.773438 C 6.792969 18.773438 6.617188 18.597656 6.617188 18.378906 C 6.617188 18.160156 6.792969 17.984375 7.003906 17.984375 L 23.179688 17.984375 C 23.394531 17.984375 23.566406 18.160156 23.566406 18.378906 C 23.566406 18.597656 23.394531 18.773438 23.179688 18.773438 Z M 23.179688 18.773438 "/>
</g>
</g>
</svg>
