<?xml version="1.0" encoding="UTF-8"?>
<svg xmlns="http://www.w3.org/2000/svg" xmlns:xlink="http://www.w3.org/1999/xlink" width="30pt" height="30.000001pt" viewBox="0 0 30 30.000001" version="1.2">
<defs>
<clipPath id="clip1">
  <path d="M 8.648438 8.164062 L 21.714844 8.164062 L 21.714844 21.230469 L 8.648438 21.230469 Z M 8.648438 8.164062 "/>
</clipPath>
</defs>
<g id="surface1">
<path style=" stroke:none;fill-rule:nonzero;fill:rgb(100%,100%,100%);fill-opacity:1;" d="M 14.988281 27.921875 C 11.40625 27.921875 8.035156 26.527344 5.503906 23.992188 C 2.96875 21.460938 1.574219 18.085938 1.574219 14.503906 C 1.574219 10.921875 2.96875 7.550781 5.503906 5.019531 C 8.035156 2.484375 11.40625 1.089844 14.988281 1.089844 C 18.570312 1.089844 21.945312 2.484375 24.476562 5.019531 C 27.011719 7.554688 28.40625 10.921875 28.40625 14.503906 C 28.40625 18.085938 27.011719 21.460938 24.476562 23.992188 C 21.945312 26.527344 18.570312 27.921875 14.988281 27.921875 Z M 14.988281 1.894531 C 11.621094 1.894531 8.453125 3.207031 6.070312 5.585938 C 3.691406 7.96875 2.375 11.136719 2.375 14.503906 C 2.375 17.871094 3.691406 21.042969 6.070312 23.421875 C 8.453125 25.804688 11.621094 27.117188 14.988281 27.117188 C 18.355469 27.117188 21.527344 25.804688 23.90625 23.421875 C 26.289062 21.042969 27.601562 17.871094 27.601562 14.503906 C 27.601562 11.136719 26.289062 7.96875 23.90625 5.585938 C 21.527344 3.207031 18.355469 1.894531 14.988281 1.894531 Z M 14.988281 1.894531 "/>
<g clip-path="url(#clip1)" clip-rule="nonzero">
<path style=" stroke:none;fill-rule:nonzero;fill:rgb(100%,100%,100%);fill-opacity:1;" d="M 8.925781 21.21875 C 8.859375 21.21875 8.796875 21.191406 8.746094 21.144531 C 8.648438 21.046875 8.648438 20.886719 8.746094 20.789062 L 21.261719 8.277344 C 21.359375 8.179688 21.519531 8.179688 21.617188 8.277344 C 21.714844 8.375 21.714844 8.53125 21.617188 8.628906 L 9.101562 21.144531 C 9.050781 21.191406 8.988281 21.21875 8.925781 21.21875 "/>
<path style=" stroke:none;fill-rule:nonzero;fill:rgb(100%,100%,100%);fill-opacity:1;" d="M 21.4375 21.21875 C 21.375 21.21875 21.308594 21.191406 21.261719 21.144531 L 8.746094 8.628906 C 8.648438 8.53125 8.648438 8.375 8.746094 8.277344 C 8.84375 8.179688 9.003906 8.179688 9.101562 8.277344 L 21.617188 20.789062 C 21.714844 20.886719 21.714844 21.046875 21.617188 21.144531 C 21.566406 21.191406 21.503906 21.21875 21.4375 21.21875 "/>
</g>
</g>
</svg>
